<?xml version="1.0" encoding="utf-8"?><svg width="272" height="271" viewBox="0 0 272 271" xmlns="http://www.w3.org/2000/svg" xmlns:xlink="http://www.w3.org/1999/xlink"><view id="1" viewBox="0 0 100 100"/><svg width="100" height="100" viewBox="0 0 190 190" xmlns="http://www.w3.org/2000/svg"><path d="M0 95V0h190v190H0V95zm84.714 17.743c3.97-2.683 8.74-9.2 7.822-10.684-1.372-2.22-8.886-1.124-13.436 1.96-4.977 3.372-6.944 3.63-11.133 1.464-7.44-3.847-7.873-15.934-.75-20.922 3.335-2.336 6.982-1.9 11.883 1.42 4.577 3.102 12.067 4.176 13.455 1.93 1.106-1.79-5.036-9.24-9.61-11.659-5.718-3.023-14.614-3.075-20.72-.12-13.915 6.737-14.87 26.409-1.768 36.403 6.206 4.734 17.42 4.83 24.257.208zM23 113c1.958-2.75 2.626-3 8-3 5.374 0 6.042.25 8 3 1.816 2.55 2.792 3 6.51 3 2.404 0 4.637-.429 4.96-.953.325-.524-2.866-9.749-7.09-20.5L35.698 75h-9.372L18.61 94.51c-4.243 10.731-7.44 19.956-7.104 20.5.337.545 2.58.99 4.985.99 3.717 0 4.693-.45 6.509-3zm4.715-12.75c-.22-.412.368-3.225 1.31-6.25l1.711-5.5 1.564 3.555c.86 1.956 1.869 4.768 2.24 6.25.64 2.547.482 2.695-2.873 2.695-1.952 0-3.73-.338-3.952-.75zm101.641 12.739c4.268-2.89 9.133-9.39 8.18-10.93-1.372-2.22-8.886-1.124-13.436 1.96-4.977 3.372-6.944 3.63-11.133 1.464-9.275-4.796-7.085-20.473 3.087-22.095 2.75-.438 4.355.07 7.946 2.513 4.672 3.18 12.147 4.288 13.555 2.01 1.111-1.798-5.044-9.242-9.703-11.735-6.05-3.236-16.79-2.832-22.208.835-7.277 4.926-10.878 13.595-9.251 22.27 1.003 5.347 6.14 12.272 10.894 14.686 5.995 3.043 16.838 2.563 22.069-.978zm20.849.261c1.215-2.542 1.82-2.772 8.006-3.045 6.586-.29 6.717-.245 8.292 2.8 1.516 2.933 1.874 3.08 6.799 2.795 3.997-.23 5.125-.647 4.88-1.8-.174-.825-3.734-10.162-7.912-20.75L162.674 74h-8.504l-8.085 20.347c-4.447 11.191-8.085 20.641-8.085 21 0 .36 2.45.653 5.445.653 4.956 0 5.564-.248 6.76-2.75zM155 99.904c0-.603.742-3.64 1.649-6.75l1.649-5.654 1.869 5.482c1.028 3.015 1.65 6.053 1.382 6.75-.594 1.55-6.549 1.706-6.549.172z" fill="#f39f18"/></svg><view id="2" viewBox="0 195.61 76.402 75.209"/><svg width="76.402" height="75.209" viewBox="0 0 76.402 75.209" y="195.61" xmlns="http://www.w3.org/2000/svg"><path d="M38.201 0A38.202 37.605 0 0 0 0 37.604a38.202 37.605 0 0 0 38.201 37.605 38.202 37.605 0 0 0 38.201-37.605A38.202 37.605 0 0 0 38.202 0zM61.06 19.422c.501 0-.199.875-1.557 1.943-1.358 1.069-5.79 6.806-9.848 12.75-4.057 5.944-11.088 14.52-15.623 19.057-8.727 8.733-11.952 10.357-10.88 5.48.827-3.766-.972-5.873-6.95-8.136-2.75-1.042-4.905-2.215-4.789-2.608.116-.393 4.166-2.038 9-3.654C30.708 40.812 40.2 35.43 48.937 28.08c7.242-6.092 10.833-8.658 12.122-8.658z" fill="#f39f18"/></svg><view id="3" viewBox="100 0 96.14 100"/><svg width="96.14" height="100" viewBox="0 0 105.7 109.946" x="100" xmlns="http://www.w3.org/2000/svg"><path d="M48.338 107.855c-4.884-3.284-18.463-9.455-26.232-11.922l-7.232-2.297-2.174-6.559C11.504 83.47 8.157 74.781 5.263 67.77L0 55.021l5.037-11.252c2.771-6.188 6.2-14.938 7.618-19.445l2.58-8.194 8.976-3.134c4.936-1.724 13.396-5.353 18.8-8.065L52.839 0l9.75 4.89c5.362 2.69 13.35 6.137 17.75 7.662 4.4 1.524 8.509 3.265 9.13 3.869.623.603 2.37 4.922 3.883 9.597s4.91 13.113 7.55 18.752l4.798 10.25-4.402 9.419c-2.42 5.18-5.866 13.922-7.656 19.425L90.387 93.87l-8.128 2.644c-4.47 1.454-13.195 5.088-19.387 8.074-6.192 2.986-11.32 5.396-11.396 5.356a233 233 0 0 1-3.138-2.09zm14.66-6.347c5.137-2.48 12.897-5.755 17.245-7.277l7.905-2.767 2.657-7.973c1.46-4.385 4.74-12.604 7.285-18.264l4.63-10.291L97.83 44.1c-4.953-10.979-8.992-21.919-8.992-24.354 0-.77-2.927-2.278-6.912-3.561-3.801-1.224-11.905-4.677-18.01-7.673L52.82 3.066l-6.323 3.476c-3.477 1.91-11.398 5.394-17.603 7.74l-11.28 4.265-3.783 10.486C11.75 34.8 8.464 42.947 6.528 47.138l-3.52 7.619 6.466 16.38c3.557 9.01 6.837 17.281 7.29 18.381.567 1.376 3.477 2.892 9.322 4.856 4.674 1.571 12.267 4.802 16.875 7.18 4.607 2.377 8.899 4.354 9.538 4.393.638.04 5.363-1.958 10.5-4.439zm-19.16-3.977c-4.676-2.342-11.759-5.303-15.742-6.58-7.04-2.257-7.287-2.447-8.902-6.877-.914-2.506-3.898-10.084-6.632-16.84l-4.97-12.285 3.522-7.716C13.05 42.99 16.06 35.435 17.8 30.445l3.164-9.074 6.762-2.178c3.72-1.198 10.91-4.197 15.98-6.664l9.218-4.487 8.706 4.357c4.789 2.397 11.632 5.39 15.207 6.65 3.575 1.261 6.878 2.62 7.34 3.022.463.4 2.14 4.593 3.727 9.317 1.587 4.723 4.507 11.806 6.488 15.74l3.602 7.154-3.59 7.855c-1.975 4.32-4.895 11.735-6.488 16.477-1.594 4.743-3.276 8.952-3.739 9.356-.462.403-4.44 1.982-8.84 3.509-4.4 1.527-11.376 4.471-15.5 6.543l-7.501 3.768-8.5-4.259zm10.617-7.263c.389-2.062.897-3.187 1.128-2.5.726 2.155 2.255 1.363 2.255-1.168 0-1.33.273-3.13.607-4 .87-2.266 3.393-1.955 3.393.418 0 1.467.666 2 2.5 2 3.148 0 3.37-2.736.259-3.18-2.897-.413-4.475-3.84-5.464-11.86-.714-5.798-1.043-6.495-3.207-6.8-1.843-.26-2.08-.548-1-1.219.776-.482 1.412-2.129 1.412-3.659 0-2.123.532-2.857 2.25-3.101 4.792-.68 1.264-5.18-4.062-5.18-3.296 0-4.835 2.12-5.441 7.5-.374 3.314-.16 4.5.811 4.5.807 0 .47.79-.87 2.038-1.204 1.122-2.188 3.13-2.188 4.465 0 3.139-2.929 11.803-4.277 12.654-.573.361-1.645.426-2.383.143-1.32-.507-1.968 2.738-.782 3.924 1.144 1.144 4.552-.495 4.003-1.925-.396-1.034.08-1.348 1.694-1.119 1.732.246 2.318 1.08 2.564 3.65.223 2.323.732 3.172 1.683 2.807.893-.343 1.587.493 2.01 2.42.888 4.043 2.256 3.688 3.105-.808zm-4.445-8.345c-1.095-1.754-.872-1.905 2.82-1.905 2.387 0 4.008.472 4.008 1.167 0 .642-.302.865-.67.496-.37-.368-1.638-.036-2.82.738-1.912 1.253-2.28 1.199-3.338-.496zM33.23 71.757c.57-.904.726-1.954.346-2.333-.95-.952-3.738 1.509-3.738 3.3 0 1.81 2 1.24 3.393-.967zm42.135 1.217c.693-1.122-1.204-3.956-2.65-3.956-1.024 0-1.188 3.356-.21 4.334.969.97 2.121.817 2.86-.378zm-45.588-3.168c1.285-2.28 1.252-2.74-.311-4.303-1.435-1.434-2.196-1.547-4.218-.626-2.544 1.16-4.144 3.74-3.017 4.868.352.352 1.172.107 1.823-.543 1.699-1.699 3.261-1.464 1.82.272-1.358 1.637-.472 3.854 1.305 3.267.637-.21 1.806-1.532 2.598-2.935zm50.247.77c-.243-1.342.152-1.585 1.75-1.078 1.707.542 2.064.226 2.064-1.829 0-1.366.562-2.718 1.25-3.005.886-.369.685-.974-.691-2.083-1.904-1.532-1.899-1.563.25-1.563 2.573 0 2.923-1.781.53-2.7-1.421-.545-1.349-.752.5-1.436 2.545-.942 2.885-2.864.506-2.864-1.54 0-1.54-.127 0-1.829 2.358-2.606 2.05-3.487-.954-2.733l-2.61.655 2.21-2.796 2.208-2.797-2.098-.32c-1.682-.255-1.907-.675-1.135-2.118 1.123-2.096.433-3.152-1.56-2.387-1.099.421-1.26-.183-.75-2.82.635-3.281.605-3.316-1.332-1.605-2.756 2.434-2.928 2.278-2.496-2.25.412-4.32-.339-5.013-2.436-2.25-1.206 1.588-1.332 1.49-1.36-1.066-.018-1.548-.553-3.788-1.19-4.977-1.13-2.113-1.174-2.117-1.93-.184-.424 1.087-.803 4.677-.84 7.977-.058 4.996.343 6.48 2.397 8.87 1.522 1.769 3.055 2.643 4 2.28 1.708-.655 1.792-.495.924 1.768-.77 2.005-3.275 2.055-4.032.082-.316-.825-1.17-1.5-1.899-1.5-.728 0-1.467-.918-1.643-2.04-.176-1.121-.77-2-1.32-1.954-1.57.134-.688 9.309.985 10.246.801.448 1.946 2.635 2.545 4.859.996 3.695.865 4.34-1.518 7.463-1.933 2.534-3.642 3.583-6.61 4.058-3.349.535-3.955.987-3.703 2.754.629 4.405 7.719 2.056 14.107-4.675 2.391-2.519 2.747-3.608 2.41-7.373-.217-2.43.051-4.694.596-5.03.567-.35.176-1.23-.91-2.05-1.855-1.402-1.852-1.429.099-1.087 1.623.284 2.11 1.383 2.588 5.84.323 3.019.138 6.614-.412 7.99-.55 1.374-.927 2.837-.838 3.25.089.412-.513.75-1.338.75-1.92 0-1.896.99.093 3.829 1.79 2.555 4.073 2.382 3.593-.271zm-34.686-1.1c0-1.34-.997-2.08-3.486-2.589-2.028-.414-4.676-2.045-6.332-3.898-3.138-3.512-3.092-4.986.39-12.631 2.058-4.515 2.58-10.34.928-10.34-.55 0-1 .675-1 1.5s-.675 1.5-1.5 1.5-1.5.627-1.5 1.393c0 1.503-2.903 3.038-3.885 2.056-.33-.33.195-1.043 1.164-1.585.97-.543 1.483-1.44 1.141-1.993-.342-.553.282-1.242 1.387-1.53 1.104-.29 2.268-1.497 2.587-2.683 1.012-3.775.656-14.509-.506-15.227-1.691-1.045-2.852 1.571-2.913 6.57l-.055 4.5-1.492-2.75c-2.135-3.936-2.763-3.411-2.174 1.815l.515 4.566-2.385-2.24-2.384-2.24v2.674c0 1.71-.54 2.674-1.5 2.674-1.775 0-1.848.483-.465 3.066.874 1.634.7 1.934-1.115 1.934-2.064 0-2.084.1-.512 2.5 1.54 2.352 1.53 2.5-.187 2.5-2.87 0-2.762 6.84.126 8.005 1.624.655 1.737.884.462.932-2.687.1-3.153 2-.713 2.903 1.888.698 1.973.92.564 1.46-2.477.95-2.005 2.7.729 2.7 2.258 0 8.248-3.896 6.099-3.966-1.438-.048-.282-11.28 1.21-11.771.88-.29.967.417.325 2.657-1.69 5.889-.333 10.215 4.63 14.771 5.728 5.259 11.847 6.688 11.847 2.767zm-1.082-4.065c2.323-.891 1.93-2.31-.944-3.403-3.358-1.276-4.117-3.622-1.949-6.018 1.405-1.552 1.581-2.61.857-5.135-.98-3.413-3.382-5.082-3.382-2.349 0 .91-.675 2.33-1.5 3.155-.917.917-1.5 3.367-1.5 6.304 0 4.424.256 4.93 3.25 6.406 3.863 1.904 3.242 1.78 5.168 1.04zm21.602-.903c5.148-2.663 6.44-7.545 2.98-11.26-1.1-1.18-2-3.038-2-4.129 0-3.705-1.898-3.175-3.109.868-1.037 3.461-.974 4.282.451 5.857 2.482 2.742 2.01 4.856-1.342 6.024-2.93 1.022-3.678 2.139-2.334 3.484 1 1 2.134.82 5.354-.844z" fill="#f39f18"/></svg><view id="4" viewBox="196.14 0 75.5 100"/><svg width="75.5" height="100" viewBox="0 0 89.086 118" x="196.14" xmlns="http://www.w3.org/2000/svg"><path d="M19.392 115.5V113h50v5h-50v-2.5zm0-15V90h50v21h-50v-10.5zm17-13.34c0-.462.9-4.359 2-8.66s2-9.737 2-12.081c0-3.86-.624-4.942-6.614-11.469-3.638-3.964-7.67-9.512-8.958-12.329-2.548-5.565-4.924-18.778-6.002-33.371L18.134 0h51.563l-.648 11.347c-1.377 24.103-4.528 34.08-13.996 44.306-4.76 5.14-5.66 6.704-5.66 9.814 0 3.253 2.932 16.587 4.607 20.954.525 1.367-.615 1.579-8.5 1.579-5.01 0-9.108-.378-9.108-.84zm32.126-34.708c-2.499-2.102-3.126-3.398-3.126-6.458 0-3.215.626-4.362 3.905-7.161 3.577-3.054 4.205-4.397 7.5-16.037 1.977-6.988 3.595-13.373 3.595-14.19 0-1.11-1.073-1.437-4.25-1.295-4.11.183-4.26.082-4.563-3.061L71.265 1h9.131c8.263 0 9.078.167 8.572 1.76-.307.97-2.604 9.122-5.103 18.118C78.247 41.102 77.08 44 74.55 44c-2.518 0-3.464 2.5-1.548 4.091 1.67 1.385 1.504 6.054-.234 6.623-.618.203-2.53-.815-4.25-2.262zm-53.499.841c-.993-.993-.728-5.112.373-5.793 1.914-1.183 1.075-4.35-1.24-4.68-1.233-.176-2.775-1.445-3.428-2.82C8.872 36.102-.523 1.672.023.789.29.355 4.309 0 8.95 0h8.441v3c0 2.883-.173 3-4.44 3-2.443 0-4.63.338-4.859.75-.23.412 1.328 6.79 3.461 14.172 3.524 12.196 4.242 13.758 7.858 17.096 4.143 3.825 5.032 7.149 2.95 11.037-1.165 2.178-6.389 5.193-7.343 4.238z" fill="#f39f18"/></svg><view id="fix" viewBox="0 100 100 5.21"/><svg preserveAspectRatio="none" height="5.21" width="100" viewBox="0 0 4105.65 213.947" y="100" xmlns="http://www.w3.org/2000/svg"><path d="M2052.925 0L4105.65 213.947H0z" fill="#394b5f"/></svg><view id="logo" viewBox="0 105.21 100 46.07"/><svg height="46.07" width="100" viewBox="0 0 583.909 269" y="105.21" xmlns="http://www.w3.org/2000/svg"><path d="M0 267.75c.021-.688 2.623-8 5.781-16.25 5.562-14.529 5.839-15.01 8.794-15.3l3.05-.302 5.822 15.301c3.202 8.416 6.026 15.863 6.275 16.551.315.866-.76 1.25-3.494 1.25-3.74 0-4.012-.211-5.148-4l-1.198-4H9.279l-1.199 4c-1.098 3.665-1.488 4-4.658 4-2.121 0-3.445-.484-3.422-1.25zm17.962-12.072c0-.177-.739-2.49-1.642-5.14l-1.641-4.819-1.858 4.89c-1.021 2.69-1.857 5.003-1.858 5.141 0 .138 1.574.25 3.5.25 1.924 0 3.5-.145 3.5-.322zm14-3.178V236h8.05c12.139 0 16.95 3.34 16.95 11.768 0 3.308-.602 4.926-2.567 6.89l-2.567 2.567 3.567 5.372c1.962 2.955 3.567 5.604 3.567 5.888 0 .283-1.761.515-3.914.515-3.62 0-4.145-.376-6.99-5-2.492-4.048-3.603-5-5.836-5-2.691-.001-2.751.123-2.413 5l.346 5h-8.193v-16.5zm16.8-1.7c.66-.66 1.2-2.145 1.2-3.3 0-3.144-1.943-4.5-6.45-4.5h-4.05v9h4.05c2.228 0 4.59-.54 5.25-1.2zm12.2 1.7V236h7.979l4.352 8.661c3.21 6.387 4.59 8.29 5.259 7.25.498-.776 2.553-4.561 4.565-8.411 3.4-6.504 3.913-7.022 7.252-7.31l3.593-.31V269h-7l-.049-9.25-.05-9.25-3.464 6.75c-2.505 4.88-4.01 6.75-5.437 6.75-1.426 0-2.932-1.87-5.437-6.75l-3.464-6.75-.05 9.25-.049 9.25h-8v-16.5zm36 15.639c0-.54 2.64-7.88 5.866-16.31 5.659-14.786 5.973-15.34 8.873-15.633 2.153-.218 3.208.208 3.719 1.5 3.025 7.658 11.542 30.375 11.542 30.788 0 .284-1.578.516-3.508.516-3.166 0-3.666-.394-5.128-4.048l-1.62-4.048-5.037.298c-4.773.282-5.1.482-6.205 3.798-1.018 3.05-1.64 3.54-4.835 3.81-2.017.171-3.667-.131-3.667-.671zm17.6-14.595c-.918-3.66-2.61-7.875-2.983-7.433-.18.214-1.04 2.526-1.911 5.139l-1.584 4.75h3.547c3.268 0 3.5-.194 2.932-2.456zm19.4 2.456v-13h-10v-7h27v7h-10v26h-7v-13zm14 12.484c0-.413 8.517-23.13 11.543-30.788.51-1.292 1.565-1.717 3.719-1.5 2.9.293 3.214.847 8.872 15.632 3.227 8.43 5.866 15.77 5.866 16.31 0 .54-1.65.843-3.667.672-3.194-.27-3.817-.76-4.834-3.81-1.106-3.316-1.432-3.516-6.205-3.798l-5.038-.298-1.62 4.048c-1.462 3.654-1.961 4.048-5.128 4.048-1.93 0-3.508-.232-3.508-.516zm17.154-17.397c-.91-2.702-1.862-4.706-2.116-4.454-.255.252-1.224 2.463-2.154 4.913l-1.69 4.454h7.613l-1.653-4.913zm24.846 1.413V236h22v7h-15v7h6c6 0 6 0 6 3s0 3-6 3h-6v13h-7v-16.5zm25 0V236h7v33h-7v-16.5zm12 0V236h2.75c2.29.002 4.074 1.677 10.653 10 4.347 5.5 7.947 10.001 8 10.002.054.001-.045-4.499-.22-10L247.83 236h8.133v33l-3.25-.043c-2.9-.038-4.057-1.073-10.75-9.617l-7.5-9.574-.286 9.617-.286 9.617h-6.928v-16.5zm31.012 15.25c.006-.688 2.603-8 5.771-16.25 5.59-14.56 5.85-15.009 8.833-15.302l3.073-.301 5.563 14.801c3.06 8.141 5.878 15.59 6.263 16.552.595 1.49.111 1.75-3.25 1.75-3.74 0-4.011-.211-5.147-4l-1.198-4h-10.603l-1.199 4c-1.098 3.665-1.488 4-4.658 4-2.107 0-3.455-.489-3.448-1.25zm17.988-12.072c0-.177-.739-2.49-1.642-5.14l-1.641-4.819-1.858 4.89c-1.021 2.69-1.857 5.003-1.858 5.141 0 .138 1.574.25 3.5.25 1.924 0 3.5-.145 3.5-.322zm14-3.178V236h2.839c2.37 0 3.98 1.434 9.75 8.688 3.801 4.778 7.361 9.29 7.911 10.024.683.913.9-1.844.684-8.687L310.829 236h8.133v33h-2.968c-2.546 0-4.054-1.35-10.609-9.5-4.203-5.225-7.704-9.501-7.782-9.502-.077-.001.003 4.274.178 9.5L298.1 269h-8.138v-16.5zm40.389 14.595c-10.12-6.17-11.16-20.592-1.988-27.587 6.555-5 14.982-4.307 20.57 1.691 2.63 2.823 2.581 3.069-.913 4.615-2.63 1.164-3.16 1.084-5-.756-4.395-4.395-11.92-1.547-13.579 5.139-1.023 4.124 1.22 9.596 4.666 11.378 4.57 2.363 10.575.074 9.98-3.806-.061-.402 1.46.02 3.382.935 4.078 1.945 4.328 3.165 1.243 6.055-4.83 4.524-13.056 5.571-18.361 2.336zm23.611-14.595V236h7v33h-7v-16.5zm10.059 15.25c.032-.688 2.658-8 5.835-16.25 5.566-14.45 5.888-15.011 8.788-15.302l3.01-.302 6.154 16.023c3.385 8.812 6.154 16.26 6.154 16.552 0 .29-1.61.529-3.58.529-3.249 0-3.726-.37-5.152-4-1.56-3.972-1.608-4-6.92-4-4.01 0-5.348.363-5.348 1.453 0 .8-.522 2.6-1.16 4-.907 1.99-1.892 2.547-4.5 2.547-2.036 0-3.317-.488-3.281-1.25zm17.915-13c-.014-.688-.81-2.995-1.768-5.128l-1.742-3.877-1.64 5.127-1.64 5.128h3.408c2.074 0 3.398-.49 3.382-1.25zm14.026-2.25V236h8v26h16v7h-24v-16.5zm42.207 14.831c-7.51-3.7-10.731-16.326-5.957-23.341 3.042-4.47 6.566-6.924 10.97-7.638 4.828-.784 7.952.08 11.703 3.237 3.7 3.113 3.867 4.65.687 6.352-2.09 1.118-2.655 1.014-4.5-.83-2.748-2.75-8.402-2.818-11.084-.136-4.733 4.732-3.672 13.376 2.015 16.421 3.407 1.824 3.682 1.83 7.25.136 4.544-2.156 4.915-4.532.71-4.532-2.534 0-3-.389-3-2.5 0-2.389.266-2.5 6-2.5h6v17h-2.917c-1.605 0-3.089-.515-3.298-1.143-.286-.858-.915-.858-2.518 0-3.005 1.608-8.19 1.382-12.061-.526zm25.793-14.831V236h7.6c8.777 0 13.178 1.66 15.694 5.92 2.43 4.113 2.143 8.408-.794 11.898-1.375 1.634-2.5 3.236-2.5 3.561 0 .325 1.35 2.785 3 5.467 1.65 2.681 3 5.163 3 5.515 0 .351-1.687.63-3.75.62-3.428-.019-4.004-.448-6.706-5-2.422-4.08-3.462-4.981-5.75-4.981-2.686 0-2.794.193-2.794 5v5h-7v-16.5zm16.5-5v-4l-4.75-.305-4.75-.305v9.22l4.75-.305 4.75-.305v-4zm18.49 19.25c-5.165-3.515-7.276-7.07-7.696-12.959-.476-6.672 2.485-12.252 8.227-15.504 7.044-3.99 13.328-2.64 19.282 4.14 5.24 5.97 5.253 14.419.03 21.059-4.459 5.668-14.004 7.238-19.843 3.264zm13.76-7.387c3.238-3.56 3.134-10.57-.204-13.908-3.222-3.222-8.415-3.317-11.24-.205-4.662 5.134-3.562 13.868 2.053 16.297 3.846 1.663 6.443 1.06 9.391-2.184zm19.67 7.751c-5.045-3.076-6.42-7.362-6.42-20.015V236h6.828l.336 11.467c.377 12.87 1.31 14.866 6.944 14.866 5.63 0 6.892-2.828 6.892-15.444V236h7v11.55c0 13.037-1.051 16.291-6.298 19.49-4.137 2.523-11.21 2.557-15.282.074zm27.58-14.614V236h7.55c8.693 0 12.67 1.589 14.933 5.967 4.404 8.515-1.573 17.033-11.95 17.033h-3.533v10h-7v-16.5zm16.344-2.672c.742-1.184.705-2.426-.126-4.25-.98-2.149-1.845-2.578-5.196-2.578h-4.022v9.115l4.148-.307c2.531-.188 4.557-.96 5.196-1.98zm-479.344-69.49c0-4.42-.425-3.68 27.53-47.838 12.187-19.25 26.133-41.3 30.991-49 4.859-7.7 10.722-16.925 13.029-20.5 2.307-3.575 10.596-16.625 18.42-29a20425.197 20425.197 0 0 1 17.877-28.241l3.653-5.742 19.75-.008L247.962 0v184H195.35l4.634-34.25c2.548-18.837 4.539-34.385 4.423-34.55-.116-.165-2.401-.006-5.078.354l-4.867.654-17.456 33.896L159.55 184H96.962v-3.662zm102.97-78.088c6.36-12.607 6.445-12.885 7.58-24.75.632-6.6 1.025-12.155.873-12.344-.219-.271-29.773 43.52-32.796 48.594-.574.964 1.39 1.25 8.583 1.25h9.327l6.433-12.75zM252.962 92V0h106v39.972l-31.75.264-31.75.264-.272 18.75-.272 18.75h62.733l.625 15.21c.47 11.443.322 15.402-.595 15.985-.67.426-15.056.781-31.969.79l-30.75.015v74h-42V92zm109 0V0h125v61h-37V50.189c0-15.817.97-15.189-23.466-15.189h-19.389l-2.072 2.635c-2.038 2.591-2.073 3.522-2.073 56.345 0 53.333.015 53.723 2.105 55.615 1.917 1.735 3.83 1.905 21.395 1.905 17.566 0 19.478-.17 21.395-1.905 1.525-1.38 2.105-3.103 2.105-6.25V139h-34v-26h71v71h-125V92z" fill="#fefefe"/></svg><view id="logo_triangle" viewBox="100 105.21 100 46.07"/><svg height="46.07" width="100" viewBox="0 0 583.909 269" x="100" y="105.21" xmlns="http://www.w3.org/2000/svg"><path d="M0 267.75c.021-.688 2.623-8 5.781-16.25 5.562-14.529 5.839-15.01 8.794-15.3l3.05-.302 5.822 15.301c3.202 8.416 6.026 15.863 6.275 16.551.315.866-.76 1.25-3.494 1.25-3.74 0-4.012-.211-5.148-4l-1.198-4H9.279l-1.199 4c-1.098 3.665-1.488 4-4.658 4-2.121 0-3.445-.484-3.422-1.25zm17.962-12.072c0-.177-.739-2.49-1.642-5.14l-1.641-4.819-1.858 4.89c-1.021 2.69-1.857 5.003-1.858 5.141 0 .138 1.574.25 3.5.25 1.924 0 3.5-.145 3.5-.322zm14-3.178V236h8.05c12.139 0 16.95 3.34 16.95 11.768 0 3.308-.602 4.926-2.567 6.89l-2.567 2.567 3.567 5.372c1.962 2.955 3.567 5.604 3.567 5.888 0 .283-1.761.515-3.914.515-3.62 0-4.145-.376-6.99-5-2.492-4.048-3.603-5-5.836-5-2.691-.001-2.751.123-2.413 5l.346 5h-8.193v-16.5zm16.8-1.7c.66-.66 1.2-2.145 1.2-3.3 0-3.144-1.943-4.5-6.45-4.5h-4.05v9h4.05c2.228 0 4.59-.54 5.25-1.2zm12.2 1.7V236h7.979l4.352 8.661c3.21 6.387 4.59 8.29 5.259 7.25.498-.776 2.553-4.561 4.565-8.411 3.4-6.504 3.913-7.022 7.252-7.31l3.593-.31V269h-7l-.049-9.25-.05-9.25-3.464 6.75c-2.505 4.88-4.01 6.75-5.437 6.75-1.426 0-2.932-1.87-5.437-6.75l-3.464-6.75-.05 9.25-.049 9.25h-8v-16.5zm36 15.639c0-.54 2.64-7.88 5.866-16.31 5.659-14.786 5.973-15.34 8.873-15.633 2.153-.218 3.208.208 3.719 1.5 3.025 7.658 11.542 30.375 11.542 30.788 0 .284-1.578.516-3.508.516-3.166 0-3.666-.394-5.128-4.048l-1.62-4.048-5.037.298c-4.773.282-5.1.482-6.205 3.798-1.018 3.05-1.64 3.54-4.835 3.81-2.017.171-3.667-.131-3.667-.671zm17.6-14.595c-.918-3.66-2.61-7.875-2.983-7.433-.18.214-1.04 2.526-1.911 5.139l-1.584 4.75h3.547c3.268 0 3.5-.194 2.932-2.456zm19.4 2.456v-13h-10v-7h27v7h-10v26h-7v-13zm14 12.484c0-.413 8.517-23.13 11.543-30.788.51-1.292 1.565-1.717 3.719-1.5 2.9.293 3.214.847 8.872 15.632 3.227 8.43 5.866 15.77 5.866 16.31 0 .54-1.65.843-3.667.672-3.194-.27-3.817-.76-4.834-3.81-1.106-3.316-1.432-3.516-6.205-3.798l-5.038-.298-1.62 4.048c-1.462 3.654-1.961 4.048-5.128 4.048-1.93 0-3.508-.232-3.508-.516zm17.154-17.397c-.91-2.702-1.862-4.706-2.116-4.454-.255.252-1.224 2.463-2.154 4.913l-1.69 4.454h7.613l-1.653-4.913zm24.846 1.413V236h22v7h-15v7h6c6 0 6 0 6 3s0 3-6 3h-6v13h-7v-16.5zm25 0V236h7v33h-7v-16.5zm12 0V236h2.75c2.29.002 4.074 1.677 10.653 10 4.347 5.5 7.947 10.001 8 10.002.054.001-.045-4.499-.22-10L247.83 236h8.133v33l-3.25-.043c-2.9-.038-4.057-1.073-10.75-9.617l-7.5-9.574-.286 9.617-.286 9.617h-6.928v-16.5zm31.012 15.25c.006-.688 2.603-8 5.771-16.25 5.59-14.56 5.85-15.009 8.833-15.302l3.073-.301 5.563 14.801c3.06 8.141 5.878 15.59 6.263 16.552.595 1.49.111 1.75-3.25 1.75-3.74 0-4.011-.211-5.147-4l-1.198-4h-10.603l-1.199 4c-1.098 3.665-1.488 4-4.658 4-2.107 0-3.455-.489-3.448-1.25zm17.988-12.072c0-.177-.739-2.49-1.642-5.14l-1.641-4.819-1.858 4.89c-1.021 2.69-1.857 5.003-1.858 5.141 0 .138 1.574.25 3.5.25 1.924 0 3.5-.145 3.5-.322zm14-3.178V236h2.839c2.37 0 3.98 1.434 9.75 8.688 3.801 4.778 7.361 9.29 7.911 10.024.683.913.9-1.844.684-8.687L310.829 236h8.133v33h-2.968c-2.546 0-4.054-1.35-10.609-9.5-4.203-5.225-7.704-9.501-7.782-9.502-.077-.001.003 4.274.178 9.5L298.1 269h-8.138v-16.5zm40.389 14.595c-10.12-6.17-11.16-20.592-1.988-27.587 6.555-5 14.982-4.307 20.57 1.691 2.63 2.823 2.581 3.069-.913 4.615-2.63 1.164-3.16 1.084-5-.756-4.395-4.395-11.92-1.547-13.579 5.139-1.023 4.124 1.22 9.596 4.666 11.378 4.57 2.363 10.575.074 9.98-3.806-.061-.402 1.46.02 3.382.935 4.078 1.945 4.328 3.165 1.243 6.055-4.83 4.524-13.056 5.571-18.361 2.336zm23.611-14.595V236h7v33h-7v-16.5zm10.059 15.25c.032-.688 2.658-8 5.835-16.25 5.566-14.45 5.888-15.011 8.788-15.302l3.01-.302 6.154 16.023c3.385 8.812 6.154 16.26 6.154 16.552 0 .29-1.61.529-3.58.529-3.249 0-3.726-.37-5.152-4-1.56-3.972-1.608-4-6.92-4-4.01 0-5.348.363-5.348 1.453 0 .8-.522 2.6-1.16 4-.907 1.99-1.892 2.547-4.5 2.547-2.036 0-3.317-.488-3.281-1.25zm17.915-13c-.014-.688-.81-2.995-1.768-5.128l-1.742-3.877-1.64 5.127-1.64 5.128h3.408c2.074 0 3.398-.49 3.382-1.25zm14.026-2.25V236h8v26h16v7h-24v-16.5zm42.207 14.831c-7.51-3.7-10.731-16.326-5.957-23.341 3.042-4.47 6.566-6.924 10.97-7.638 4.828-.784 7.952.08 11.703 3.237 3.7 3.113 3.867 4.65.687 6.352-2.09 1.118-2.655 1.014-4.5-.83-2.748-2.75-8.402-2.818-11.084-.136-4.733 4.732-3.672 13.376 2.015 16.421 3.407 1.824 3.682 1.83 7.25.136 4.544-2.156 4.915-4.532.71-4.532-2.534 0-3-.389-3-2.5 0-2.389.266-2.5 6-2.5h6v17h-2.917c-1.605 0-3.089-.515-3.298-1.143-.286-.858-.915-.858-2.518 0-3.005 1.608-8.19 1.382-12.061-.526zm25.793-14.831V236h7.6c8.777 0 13.178 1.66 15.694 5.92 2.43 4.113 2.143 8.408-.794 11.898-1.375 1.634-2.5 3.236-2.5 3.561 0 .325 1.35 2.785 3 5.467 1.65 2.681 3 5.163 3 5.515 0 .351-1.687.63-3.75.62-3.428-.019-4.004-.448-6.706-5-2.422-4.08-3.462-4.981-5.75-4.981-2.686 0-2.794.193-2.794 5v5h-7v-16.5zm16.5-5v-4l-4.75-.305-4.75-.305v9.22l4.75-.305 4.75-.305v-4zm18.49 19.25c-5.165-3.515-7.276-7.07-7.696-12.959-.476-6.672 2.485-12.252 8.227-15.504 7.044-3.99 13.328-2.64 19.282 4.14 5.24 5.97 5.253 14.419.03 21.059-4.459 5.668-14.004 7.238-19.843 3.264zm13.76-7.387c3.238-3.56 3.134-10.57-.204-13.908-3.222-3.222-8.415-3.317-11.24-.205-4.662 5.134-3.562 13.868 2.053 16.297 3.846 1.663 6.443 1.06 9.391-2.184zm19.67 7.751c-5.045-3.076-6.42-7.362-6.42-20.015V236h6.828l.336 11.467c.377 12.87 1.31 14.866 6.944 14.866 5.63 0 6.892-2.828 6.892-15.444V236h7v11.55c0 13.037-1.051 16.291-6.298 19.49-4.137 2.523-11.21 2.557-15.282.074zm27.58-14.614V236h7.55c8.693 0 12.67 1.589 14.933 5.967 4.404 8.515-1.573 17.033-11.95 17.033h-3.533v10h-7v-16.5zm16.344-2.672c.742-1.184.705-2.426-.126-4.25-.98-2.149-1.845-2.578-5.196-2.578h-4.022v9.115l4.148-.307c2.531-.188 4.557-.96 5.196-1.98zm-479.344-69.49c0-4.42-.425-3.68 27.53-47.838 12.187-19.25 26.133-41.3 30.991-49 4.859-7.7 10.722-16.925 13.029-20.5 2.307-3.575 10.596-16.625 18.42-29a20425.197 20425.197 0 0 1 17.877-28.241l3.653-5.742 19.75-.008L247.962 0v184H195.35l4.634-34.25c2.548-18.837 4.539-34.385 4.423-34.55-.116-.165-2.401-.006-5.078.354l-4.867.654-17.456 33.896L159.55 184H96.962v-3.662zm102.97-78.088c6.36-12.607 6.445-12.885 7.58-24.75.632-6.6 1.025-12.155.873-12.344-.219-.271-29.773 43.52-32.796 48.594-.574.964 1.39 1.25 8.583 1.25h9.327l6.433-12.75zM252.962 92V0h106v39.972l-31.75.264-31.75.264-.272 18.75-.272 18.75h62.733l.625 15.21c.47 11.443.322 15.402-.595 15.985-.67.426-15.056.781-31.969.79l-30.75.015v74h-42V92zm109 0V0h125v61h-37V50.189c0-15.817.97-15.189-23.466-15.189h-19.389l-2.072 2.635c-2.038 2.591-2.073 3.522-2.073 56.345 0 53.333.015 53.723 2.105 55.615 1.917 1.735 3.83 1.905 21.395 1.905 17.566 0 19.478-.17 21.395-1.905 1.525-1.38 2.105-3.103 2.105-6.25V139h-34v-26h71v71h-125V92z" fill="#63778d"/></svg><view id="tc_triangle" viewBox="0 151.28 100 44.33"/><svg height="44.33" width="100" viewBox="0 0 291.012 129" y="151.28" xmlns="http://www.w3.org/2000/svg"><path d="M3.382 126.028L46.476 63 3.03 3.8h240.72l43.118 58.77-43.282 63.462z" fill="#f39f18"/></svg></svg>